<svg id="Capa_1" enable-background="new 0 0 512 512" height="512" viewBox="0 0 512 512" width="512" xmlns="http://www.w3.org/2000/svg"><g><g><path d="m485.177 370.162c17.156-34.372 26.823-73.135 26.823-114.162 0-141.385-114.615-256-256-256s-256 114.615-256 256c0 41.027 9.667 79.79 26.823 114.162z" fill="#603f42"/></g><g><circle cx="345.012" cy="165.787" fill="#b2381b" r="58.726"/></g><g><circle cx="126.942" cy="130.983" fill="#b2381b" r="21.631"/></g><g><circle cx="406.451" cy="174.244" fill="#b2381b" r="21.631"/></g><g><circle cx="128.409" cy="183.286" fill="#c04a27" r="44.491"/></g><g><circle cx="172.9" cy="135.531" fill="#c04a27" r="33.843"/></g><g><circle cx="318.674" cy="180.022" fill="#c04a27" r="44.491"/></g><g><g><path d="m402.74 5.436c-9.33-10.114-80.688-9.811-127.823 33.668-25.136 23.187-26.717 62.36-3.53 87.497s62.36 26.717 87.497 3.53c47.134-43.479 53.185-114.581 43.856-124.695z" fill="#a3ea6e"/></g><g><path d="m331.661 126.601c-23.187-25.136-21.606-64.31 3.53-87.497 20.018-18.465 44.403-29.14 66.552-34.54-12.551-9.186-81.09-7.65-126.827 34.54-25.136 23.187-26.717 62.36-3.53 87.497 19.794 21.458 51.232 25.734 75.648 12.106-5.591-3.116-10.796-7.144-15.373-12.106z" fill="#85d249"/></g><path d="m354.684 42.289c-2.688-3.153-7.422-3.529-10.573-.841-9.602 8.187-18.369 16.758-26.344 25.746-2.828-10.353-1.676-20.007-.474-25.618.868-4.051-1.712-8.037-5.762-8.905-4.052-.868-8.038 1.712-8.905 5.763-1.88 8.776-3.636 25.354 4.098 42.135-5.829 7.608-11.143 15.504-15.957 23.708-.223.32-.423.658-.597 1.018-8.146 14.047-14.838 28.996-20.143 44.953-1.307 3.931.82 8.177 4.751 9.483.785.261 1.583.385 2.367.385 3.143 0 6.07-1.99 7.116-5.136 4.41-13.265 9.852-25.786 16.358-37.642 3.343.7 7.82 1.337 13.098 1.337 9.381 0 21.243-2.014 33.529-9.265 3.567-2.105 4.752-6.703 2.647-10.271s-6.704-4.752-10.271-2.647c-11.911 7.029-23.179 7.711-30.713 6.986 12.014-18.481 26.922-35.256 44.936-50.615 3.15-2.688 3.527-7.422.839-10.574z" fill="#60b550"/></g><g><circle cx="178.841" cy="180.022" fill="#d85e41" r="44.491"/></g><g><circle cx="248.758" cy="135.531" fill="#d85e41" r="63.851"/></g><g><path d="m485.177 370.162c-30.86-123.914-66.347-174.162-66.347-174.162h-162.83-162.83s-35.487 50.248-66.348 174.162c41.966 84.08 128.82 141.838 229.178 141.838s187.212-57.758 229.177-141.838z" fill="#ffe400"/></g><g><path d="m26.823 370.162c14.099 28.248 33.258 53.527 56.303 74.639 32.915-178.736 82.405-248.801 82.405-248.801h-72.361s-35.487 50.248-66.347 174.162z" fill="#febb00"/></g><g><g><path d="m324.27 401.732h-31.391v-15.065c0-3.788-4.58-5.685-7.258-3.007l-29.066 29.066c-3.321 3.321-3.321 8.705 0 12.026l29.066 29.066c2.679 2.679 7.258.781 7.258-3.007v-15.065h31.391l4.961-1.194 8.097-15.813z" fill="#60b550"/></g><g><path d="m324.27 401.732h-31.391c9.393 0 17.008 7.615 17.008 17.007 0 9.393-7.614 17.007-17.007 17.007h31.39l4.961-1.194 8.097-15.813z" fill="#389f4d"/></g><g><path d="m339.071 427.192 14.648-25.427c3.043-5.283 3.04-11.788-.008-17.068l-23.604-40.883c-2.867-4.966-10.307-3.987-11.791 1.552-1.215 4.536-5.878 7.229-10.415 6.013l-.022-.006c-5.538-1.481-10.103 4.471-7.237 9.436l29.852 51.706c4.696 8.135 1.909 18.536-6.225 23.233 6.109-.001 11.753-3.263 14.802-8.556z" fill="#60b550"/></g><g><path d="m256.032 283.476 15.695 27.185-13.047 7.533c-3.281 1.894-2.633 6.809 1.025 7.789l39.705 10.639c4.536 1.216 9.199-1.477 10.415-6.013l10.639-39.705c.98-3.659-2.952-6.677-6.233-4.783l-13.047 7.533-15.695-27.185-3.515-3.699-17.743.895z" fill="#60b550"/></g><g><path d="m256.032 283.476 15.695 27.185c-4.697-8.135-1.909-18.536 6.225-23.233 8.134-4.696 18.535-1.91 23.232 6.224l-15.695-27.185-3.515-3.699-17.743.895z" fill="#389f4d"/></g><g><path d="m270.68 257.927-29.345.028c-6.097.006-11.729 3.261-14.777 8.541l-23.604 40.883c-2.867 4.966 1.701 10.919 7.24 9.435 4.536-1.216 9.199 1.477 10.415 6.013l.006.022c1.486 5.537 8.924 6.514 11.79 1.549l29.852-51.706c4.696-8.135 15.098-10.922 23.233-6.225-3.054-5.289-8.701-8.546-14.81-8.54z" fill="#60b550"/></g><g><path d="m187.746 401.725 15.696-27.185 13.047 7.533c3.281 1.894 7.213-1.124 6.233-4.783l-10.639-39.705c-1.216-4.536-5.878-7.229-10.415-6.013l-39.705 10.639c-3.659.98-4.306 5.895-1.025 7.789l13.047 7.533-15.696 27.185-1.446 4.893 9.646 14.919z" fill="#60b550"/></g><g><path d="m187.746 401.725 15.696-27.185c-4.696 8.135-15.098 10.922-23.233 6.225-8.134-4.696-10.921-15.097-6.226-23.232l-15.695 27.185-1.446 4.893 9.646 14.919z" fill="#389f4d"/></g><g><path d="m158.297 401.814 14.697 25.399c3.054 5.277 8.688 8.527 14.785 8.527h47.208c5.734 0 8.606-6.933 4.551-10.988-3.321-3.321-3.321-8.705 0-12.026l.016-.016c4.052-4.056 1.179-10.985-4.553-10.985h-59.704c-9.393 0-17.007-7.615-17.007-17.007-3.056 5.29-3.053 11.809.007 17.096z" fill="#60b550"/></g></g><g><path d="m451 211h-390c-8.284 0-15-6.716-15-15 0-8.284 6.716-15 15-15h390c8.284 0 15 6.716 15 15 0 8.284-6.716 15-15 15z" fill="#fff442"/></g><g><path d="m117.88 196c0-8.284 6.716-15 15-15h-71.88c-8.284 0-15 6.716-15 15s6.716 15 15 15h71.88c-8.284 0-15-6.716-15-15z" fill="#ffe400"/></g></g></svg>