<svg height="480pt" viewBox="0 0 480 480" width="480pt" xmlns="http://www.w3.org/2000/svg"><path d="m448 360h16c0 30.929688-25.070312 56-56 56h-16c0-30.929688 25.070312-56 56-56zm0 0" fill="#91cc04"/><path d="m336 360c30.929688 0 56 25.070312 56 56h-16c-30.929688 0-56-25.070312-56-56zm0 0" fill="#91cc04"/><path d="m296 312h16c0 30.929688-25.070312 56-56 56h-16c0-30.929688 25.070312-56 56-56zm0 0" fill="#4e901e"/><path d="m288 112c0 26.507812-21.492188 48-48 48s-48-21.492188-48-48 21.492188-48 48-48 48 21.492188 48 48zm0 0" fill="#ffda44"/><path d="m264 304c0 22.078125-24 40-24 40s-24-17.921875-24-40 24-40 24-40 24 17.921875 24 40zm0 0" fill="#91cc04"/><path d="m240 368h-16c-30.929688 0-56-25.070312-56-56h16c30.929688 0 56 25.070312 56 56zm0 0" fill="#4e901e"/><path d="m240 432h-16c-17.671875 0-32-14.328125-32-32h16c17.671875 0 32 14.328125 32 32zm0 0" fill="#4e901e"/><path d="m144 360h16c0 30.929688-25.070312 56-56 56h-16c0-30.929688 25.070312-56 56-56zm0 0" fill="#91cc04"/><path d="m32 360c30.929688 0 56 25.070312 56 56h-16c-30.929688 0-56-25.070312-56-56zm0 0" fill="#91cc04"/><path d="m232 0h16v16h-16zm0 0"/><path d="m400 464v-40h8c35.328125-.039062 63.960938-28.671875 64-64 0-4.417969-3.582031-8-8-8h-16c-23.296875.015625-44.746094 12.6875-56 33.089844-11.253906-20.402344-32.703125-33.074219-56-33.089844h-16c-4.417969 0-8 3.582031-8 8 .039062 35.328125 28.671875 63.960938 64 64h8v40h-136v-88h8c35.328125-.039062 63.960938-28.671875 64-64 0-4.417969-3.582031-8-8-8h-16c-8.335938-.007812-16.597656 1.621094-24.304688 4.800781.203126-1.59375.304688-3.195312.304688-4.800781 0-25.816406-26.105469-45.601562-27.199219-46.398438-2.84375-2.136718-6.757812-2.136718-9.601562 0-1.109375.796876-27.199219 20.597657-27.199219 46.398438 0 1.605469.101562 3.207031.304688 4.800781-7.707032-3.179687-15.96875-4.808593-24.304688-4.800781h-16c-4.417969 0-8 3.582031-8 8 .039062 35.328125 28.671875 63.960938 64 64h8v24.207031c-6.882812-5.292969-15.316406-8.175781-24-8.207031h-16c-4.417969 0-8 3.582031-8 8 .027344 22.082031 17.917969 39.972656 40 40h8v24h-136v-40h8c35.328125-.039062 63.960938-28.671875 64-64 0-4.417969-3.582031-8-8-8h-16c-23.296875.015625-44.746094 12.6875-56 33.089844-11.253906-20.402344-32.703125-33.074219-56-33.089844h-16c-4.417969 0-8 3.582031-8 8 .039062 35.328125 28.671875 63.960938 64 64h8v40h-80v16h480v-16zm48-96h7.335938c-3.933594 23.082031-23.921876 39.96875-47.335938 40h-7.335938c3.933594-23.082031 23.921876-39.96875 47.335938-40zm-72 40c-23.414062-.03125-43.402344-16.917969-47.335938-40h7.335938c23.414062.03125 43.402344 16.917969 47.335938 40zm-152 16c-10.167969-.011719-19.230469-6.417969-22.632812-16h6.632812c10.167969.011719 19.230469 6.417969 22.632812 16zm79.335938-104c-3.933594 23.082031-23.921876 39.96875-47.335938 40h-7.335938c3.933594-23.082031 23.921876-39.96875 47.335938-40zm-63.335938-45.40625c8.847656 7.433594 14.5625 17.9375 16 29.40625-1.40625 11.476562-7.125 21.992188-16 29.40625-8.847656-7.433594-14.5625-17.9375-16-29.40625 1.40625-11.476562 7.125-21.992188 16-29.40625zm-16 85.40625c-23.414062-.03125-43.402344-16.917969-47.335938-40h7.335938c23.414062.03125 43.402344 16.917969 47.335938 40zm-80 8h7.335938c-3.933594 23.082031-23.921876 39.96875-47.335938 40h-7.335938c3.933594-23.082031 23.921876-39.96875 47.335938-40zm-72 40c-23.414062-.03125-43.402344-16.917969-47.335938-40h7.335938c23.414062.03125 43.402344 16.917969 47.335938 40zm0 0"/><path d="m240 168c30.929688 0 56-25.070312 56-56s-25.070312-56-56-56-56 25.070312-56 56c.039062 30.910156 25.089844 55.960938 56 56zm0-96c22.089844 0 40 17.910156 40 40s-17.910156 40-40 40-40-17.910156-40-40c.027344-22.082031 17.917969-39.972656 40-40zm0 0"/><path d="m232 24h16v16h-16zm0 0"/><path d="m172.121094 55.425781 11.3125-11.3125 11.3125 11.3125-11.3125 11.3125zm0 0"/><path d="m152 104h16v16h-16zm0 0"/><path d="m172.121094 168.570312 11.3125-11.316406 11.3125 11.316406-11.3125 11.3125zm0 0"/><path d="m232 184h16v16h-16zm0 0"/><path d="m285.253906 168.570312 11.3125-11.3125 11.316406 11.3125-11.316406 11.3125zm0 0"/><path d="m312 104h16v16h-16zm0 0"/><path d="m285.253906 55.433594 11.316406-11.3125 11.3125 11.3125-11.3125 11.316406zm0 0"/><path d="m155.148438 38.457031 11.3125-11.3125 11.3125 11.3125-11.3125 11.316407zm0 0"/><path d="m128 104h16v16h-16zm0 0"/><path d="m155.144531 185.535156 11.3125-11.316406 11.3125 11.316406-11.3125 11.3125zm0 0"/><path d="m232 208h16v16h-16zm0 0"/><path d="m302.21875 185.539062 11.3125-11.3125 11.316406 11.3125-11.316406 11.3125zm0 0"/><path d="m336 104h16v16h-16zm0 0"/><path d="m302.222656 38.460938 11.3125-11.3125 11.316406 11.3125-11.316406 11.316406zm0 0"/></svg>