<svg id="Capa_1" enable-background="new 0 0 512 512" height="512" viewBox="0 0 512 512" width="512" xmlns="http://www.w3.org/2000/svg"><g><g><g><path d="m120.728 443.3h-85.759v-298.239c0-4.514 1.186-8.949 3.438-12.86l35.136-61.011c1.911-3.319 6.7-3.319 8.611 0l35.135 61.011c2.253 3.912 3.438 8.346 3.438 12.86v298.239z" fill="#faf0b0"/></g></g><g><g><path d="m239.496 443.3h-85.759v-298.239c0-4.514 1.186-8.949 3.438-12.86l35.135-61.011c1.911-3.319 6.7-3.319 8.611 0l35.135 61.011c2.253 3.912 3.438 8.346 3.438 12.86v298.239z" fill="#faf0b0"/></g></g><g><g><path d="m358.264 443.3h-85.759v-298.239c0-4.514 1.186-8.949 3.438-12.86l35.135-61.011c1.911-3.319 6.7-3.319 8.611 0l35.135 61.011c2.253 3.912 3.438 8.346 3.438 12.86v298.239z" fill="#faf0b0"/></g></g><g><g><path d="m477.032 443.3h-85.759v-298.239c0-4.514 1.186-8.949 3.438-12.86l35.135-61.011c1.911-3.319 6.7-3.319 8.611 0l35.136 61.011c2.253 3.912 3.438 8.346 3.438 12.86v298.239z" fill="#faf0b0"/></g></g><g><g><path d="m117.289 132.201-35.135-61.012c-1.911-3.319-6.7-3.319-8.611 0l-10.695 18.571 24.441 42.441c2.253 3.912 3.438 8.346 3.438 12.86v298.239h30v-298.239c.001-4.514-1.185-8.948-3.438-12.86z" fill="#f8e883"/></g></g><g><g><path d="m236.057 132.201-35.135-61.011c-1.911-3.319-6.7-3.319-8.611 0l-10.694 18.57 24.441 42.441c2.253 3.912 3.438 8.346 3.438 12.86v298.239h30v-298.239c0-4.514-1.186-8.948-3.439-12.86z" fill="#f8e883"/></g></g><g><g><path d="m354.825 132.201-35.135-61.012c-1.911-3.319-6.7-3.319-8.611 0l-10.694 18.57 24.441 42.441c2.253 3.912 3.438 8.346 3.438 12.86v298.24h30v-298.239c0-4.514-1.186-8.948-3.439-12.86z" fill="#f8e883"/></g></g><g><g><path d="m473.593 132.201-35.135-61.011c-1.911-3.319-6.7-3.319-8.611 0l-10.694 18.57 24.441 42.441c2.253 3.912 3.438 8.346 3.438 12.86v298.239h30v-298.239c0-4.514-1.186-8.948-3.439-12.86z" fill="#f8e883"/></g></g><g><g><path d="m499.308 245.118h-486.615c-2.868 0-5.193-2.325-5.193-5.193v-40.514c0-2.868 2.325-5.193 5.193-5.193h486.615c2.868 0 5.193 2.325 5.193 5.193v40.514c-.001 2.868-2.325 5.193-5.193 5.193z" fill="#e3b783"/></g></g><g><g><path d="m499.308 387.454h-486.615c-2.868 0-5.193-2.325-5.193-5.193v-40.514c0-2.868 2.325-5.193 5.193-5.193h486.615c2.868 0 5.193 2.325 5.193 5.193v40.514c-.001 2.868-2.325 5.193-5.193 5.193z" fill="#e3b783"/></g></g><g><g><path d="m499.308 194.219h-30c2.868 0 5.193 2.325 5.193 5.193v40.514c0 2.868-2.325 5.193-5.193 5.193h30c2.868 0 5.193-2.325 5.193-5.193v-40.514c-.001-2.868-2.325-5.193-5.193-5.193z" fill="#d6a974"/></g></g><g><g><path d="m499.308 336.555h-30c2.868 0 5.193 2.325 5.193 5.193v40.514c0 2.868-2.325 5.193-5.193 5.193h30c2.868 0 5.193-2.325 5.193-5.193v-40.514c-.001-2.868-2.325-5.193-5.193-5.193z" fill="#d6a974"/></g></g><g><circle cx="61.163" cy="219.694" r="7.5"/><circle cx="94.534" cy="219.694" r="7.5"/><circle cx="179.931" cy="219.694" r="7.5"/><circle cx="213.302" cy="219.694" r="7.5"/><circle cx="305.027" cy="219.694" r="7.5"/><circle cx="338.398" cy="219.694" r="7.5"/><circle cx="417.467" cy="219.694" r="7.5"/><circle cx="450.838" cy="219.694" r="7.5"/><circle cx="61.163" cy="362.005" r="7.5"/><circle cx="94.534" cy="362.005" r="7.5"/><circle cx="179.931" cy="362.005" r="7.5"/><circle cx="213.302" cy="362.005" r="7.5"/><circle cx="298.699" cy="362.005" r="7.5"/><circle cx="332.07" cy="362.005" r="7.5"/><circle cx="417.467" cy="362.005" r="7.5"/><circle cx="450.838" cy="362.005" r="7.5"/><path d="m499.308 252.618c6.999 0 12.692-5.694 12.692-12.693v-40.514c0-6.999-5.693-12.692-12.692-12.692h-14.776v-41.658c0-5.818-1.534-11.559-4.439-16.602l-35.136-61.012c-2.219-3.853-6.358-6.246-10.805-6.246-4.446 0-8.586 2.394-10.805 6.246l-35.137 61.012c-2.903 5.044-4.438 10.785-4.438 16.602v41.658h-18.009v-41.658c0-5.819-1.535-11.561-4.44-16.602l-35.136-61.012c-2.219-3.853-6.358-6.246-10.804-6.246s-8.586 2.393-10.805 6.246l-35.136 61.011c-2.904 5.042-4.439 10.784-4.439 16.603v41.658h-18.009v-41.658c0-5.817-1.535-11.558-4.439-16.602l-35.136-61.012c-2.219-3.853-6.358-6.246-10.805-6.246-4.446 0-8.586 2.393-10.805 6.246l-35.137 61.012c-2.903 5.043-4.438 10.784-4.438 16.602v41.658h-18.01v-41.658c0-5.819-1.535-11.561-4.439-16.602l-35.132-61.013c-2.219-3.853-6.358-6.246-10.805-6.246-4.446 0-8.586 2.394-10.805 6.246l-35.136 61.011c-2.904 5.042-4.439 10.784-4.439 16.603v41.658h-14.775c-6.999.001-12.693 5.695-12.693 12.693v40.514c0 6.999 5.694 12.693 12.693 12.693h14.775v17.673c0 4.142 3.357 7.5 7.5 7.5s7.5-3.358 7.5-7.5v-17.673h70.759v76.437h-70.758v-28.764c0-4.142-3.357-7.5-7.5-7.5s-7.5 3.358-7.5 7.5v28.764h-14.776c-6.999 0-12.693 5.694-12.693 12.693v40.514c0 6.999 5.694 12.692 12.693 12.692h14.775v48.346c0 4.142 3.357 7.5 7.5 7.5h85.759c4.143 0 7.5-3.358 7.5-7.5v-48.346h18.01v48.346c0 4.142 3.357 7.5 7.5 7.5h85.759c4.143 0 7.5-3.358 7.5-7.5v-48.346h18.009v48.346c0 4.142 3.357 7.5 7.5 7.5h85.759c4.143 0 7.5-3.358 7.5-7.5v-48.346h18.009v48.346c0 4.142 3.357 7.5 7.5 7.5h85.759c4.142 0 7.5-3.358 7.5-7.5v-48.346h14.776c6.999 0 12.692-5.694 12.692-12.692v-40.514c0-6.999-5.693-12.693-12.692-12.693h-14.776v-76.437zm-100.536-107.557c0-3.194.843-6.347 2.438-9.117l32.942-57.202 32.941 57.202c1.595 2.77 2.438 5.922 2.438 9.118v41.658h-70.759zm-118.767 0c0-3.195.843-6.348 2.438-9.117l32.942-57.201 32.941 57.202c1.595 2.769 2.438 5.921 2.438 9.117v41.658h-70.759zm-118.768 0c0-3.195.843-6.348 2.436-9.117l32.942-57.202 32.941 57.202c1.596 2.771 2.438 5.923 2.438 9.118v41.658h-70.759v-41.659zm-118.768 0c0-3.195.843-6.348 2.438-9.117l32.942-57.202 32.941 57.203c1.595 2.769 2.438 5.921 2.438 9.117v41.658h-70.759zm-27.469 56.658h482v35.899h-482zm350.764 127.336v-76.437h18.009v76.437zm-118.768 0v-76.437h18.009v76.437zm-15-76.437v76.437h-70.759v-76.437zm-103.769 0h18.01v76.437h-18.01zm-14.999 183.182h-70.759v-40.846h70.759zm118.768 0h-70.759v-40.846h70.759zm118.768 0h-70.759v-40.846h70.759zm118.767 0h-70.759v-40.846h70.759zm27.469-55.846h-482v-35.899h300.385c4.143 0 7.5-3.358 7.5-7.5s-3.357-7.5-7.5-7.5h-35.38v-76.437h70.759v76.437h-5.379c-4.143 0-7.5 3.358-7.5 7.5s3.357 7.5 7.5 7.5h151.615zm-27.469-50.899h-70.759v-76.437h70.759z"/></g></g></svg>