<svg height="512" viewBox="0 0 512 512" width="512" xmlns="http://www.w3.org/2000/svg"><g id="Agricultural_pests" data-name="Agricultural pests"><g id="Flat"><path d="m226.155 471.311c-44.882 0-150.476-32.042-151.308-34.061-24.711-59.95-50.062-150.893-19.819-233.15a8 8 0 0 1 9.426-5.006c19.232 4.735 39.57-11.11 39.546-31.087a8.081 8.081 0 0 1 8.1-8.01c24.757.256 40.661-32.352 25.021-51.8a8.1 8.1 0 0 1 1.526-11.481c27.358-19.916 60.742-36.863 99.23-50.376a8.1 8.1 0 0 1 10.52 8.985c-5.962 32.675 39.749 43.9 52.755 16.987a8 8 0 0 1 10.514-3.8c12.394 5.635 28.723 3.965 39.709-4.062a8 8 0 0 1 10.094.533c29.682 26.925 61.145-22.041 36.637-42.332-5.3-4.386-2.657-13.2 4.042-14.092 58.29-7.79 101.299-8.546 101.726-8.553a8.1 8.1 0 0 1 8.117 8.379c-9.691 204.759-63.23 462.923-285.836 462.926z" fill="#81c784"/><path d="m45.158 334.614c5.975 38.39 17.9 74.039 29.689 102.636.832 2.019 106.426 34.061 151.308 34.061 175.84 0 246.185-161.089 272.759-329.695a540.862 540.862 0 0 1 -453.756 192.998z" fill="#66bb6a"/><path d="m365.26 167.955c9.973-16.116-11.864-32.927-24.8-19.077q-.184.2-.363.4l-100.097 100.095v-81.373a16 16 0 0 0 -16-16 16 16 0 0 0 -16 16v113.373l-48 48v-89.373a16 16 0 0 0 -16-16 16 16 0 0 0 -16 16v121.373l-123.314 123.313a16 16 0 0 0 0 22.628 16 16 0 0 0 22.628 0l123.313-123.314h153.373v-32h-121.373l180.1-180.1q1.3-1.949 2.533-3.945z" fill="#66bb6a"/><path d="m210.239 324.389a397.673 397.673 0 0 1 -82.239 11.379v25.605l-123.314 123.313a16 16 0 0 0 0 22.628 16 16 0 0 0 22.628 0l123.313-123.314h153.373v-32h-121.373z" fill="#49ad4d"/><g fill="#9c7b70"><path d="m416.006 280a8 8 0 0 1 -4.806-14.4l28.8-21.6v-44a8 8 0 0 1 3.563-6.656l24-16a8 8 0 0 1 8.875 13.312l-20.438 13.625v43.719a8 8 0 0 1 -3.2 6.4l-32 24a7.967 7.967 0 0 1 -4.794 1.6z"/><path d="m287.994 280a7.965 7.965 0 0 1 -4.794-1.6l-32-24a8 8 0 0 1 -3.2-6.4v-43.719l-20.437-13.625a8 8 0 1 1 8.875-13.312l24 16a8 8 0 0 1 3.562 6.656v44l28.8 21.6a8 8 0 0 1 -4.806 14.4z"/><path d="m200 408a8 8 0 0 1 -5.657-13.657l21.657-21.656v-36.687a8 8 0 0 1 4.422-7.155l32-16a8 8 0 1 1 7.156 14.31l-27.578 13.789v35.056a8 8 0 0 1 -2.343 5.657l-24 24a7.976 7.976 0 0 1 -5.657 2.343z"/><path d="m504 408a7.976 7.976 0 0 1 -5.657-2.343l-24-24a8 8 0 0 1 -2.343-5.657v-35.056l-27.578-13.789a8 8 0 0 1 7.156-14.31l32 16a8 8 0 0 1 4.422 7.155v36.687l21.657 21.656a8 8 0 0 1 -5.657 13.657z"/><path d="m224 512a8 8 0 0 1 -5.657-13.657l21.657-21.656v-36.687a8 8 0 0 1 2.343-5.657l16-16a8 8 0 0 1 11.314 11.314l-13.657 13.656v36.687a8 8 0 0 1 -2.343 5.657l-24 24a7.976 7.976 0 0 1 -5.657 2.343z"/><path d="m480 512a7.976 7.976 0 0 1 -5.657-2.343l-24-24a8 8 0 0 1 -2.343-5.657v-36.687l-13.657-13.656a8 8 0 0 1 11.314-11.314l16 16a8 8 0 0 1 2.343 5.657v36.687l21.657 21.656a8 8 0 0 1 -5.657 13.657z"/><path d="m335.993 216a7.954 7.954 0 0 1 -4.43-1.345c-25.03-16.694-51.563-29.571-51.563-62.655 0-10.772 16-9.9 16 0 0 27.113 25.934 37.009 44.438 49.344a8 8 0 0 1 -4.445 14.656z"/><path d="m368.007 216a8 8 0 0 1 -4.444-14.657c18.858-12.571 44.437-21.425 44.437-49.343 0-10.771 16-9.9 16 0 0 32.132-28.083 47-51.562 62.656a7.968 7.968 0 0 1 -4.431 1.344z"/></g><path d="m402.212 239.4a51.7 51.7 0 0 0 -100.424 0l-5.559 22.7h111.542z" fill="#a1887f"/><path d="m402.212 239.4a51.579 51.579 0 0 0 -21.378-30.64c-16.007 27.014-48.247 43.3-80.929 38.33l-3.676 15.01h111.542z" fill="#9c7b70"/><circle cx="328" cy="224" fill="#bcaaa4" r="8"/><path d="m384 256h-64a72.081 72.081 0 0 0 -72 72v48h208v-48a72.081 72.081 0 0 0 -72-72z" fill="#bcaaa4"/><path d="m352 479.98a104.107 104.107 0 0 1 -104-103.98 72.081 72.081 0 0 1 72-72h64a72.081 72.081 0 0 1 72 72 104.107 104.107 0 0 1 -104 103.98z" fill="#a1887f"/><path d="m275.19 446.028a103.957 103.957 0 0 0 180.81-70.028 71.537 71.537 0 0 0 -8.335-33.574c-23.637 69.66-96.612 115.902-172.475 103.602z" fill="#9c7b70"/><path d="m408 308.128a71.442 71.442 0 0 0 -16-3.673v79.545c0 26.827-12.241 54.012-32 72.593v-152.593h-16v152.593c-19.759-18.58-32-45.766-32-72.593v-79.545a71.442 71.442 0 0 0 -16 3.673v75.872c0 36.557 19.541 73.675 49.782 94.562a10.044 10.044 0 0 0 6.208 1.42 10.324 10.324 0 0 0 6.226-1.419c30.243-20.888 49.784-58.006 49.784-94.563z" fill="#876559"/><circle cx="272" cy="376" fill="#bcaaa4" r="16"/><circle cx="280" cy="416" fill="#bcaaa4" r="8"/><circle cx="468.167" cy="51.833" fill="#c8e6c9" r="28.167"/><circle cx="456" cy="112" fill="#c8e6c9" r="16"/></g></g></svg>