<svg height="512" viewBox="0 0 512 512" width="512" xmlns="http://www.w3.org/2000/svg"><g id="Flat"><g fill="#4db6e4"><path d="m72 72h32v16h-32z"/><path d="m16 72h32v16h-32z"/><path d="m83.022 24.134h16v32h-16z" transform="matrix(.446 -.895 .895 .446 14.484 103.676)"/><path d="m32.908-.859h16v32h-16z" transform="matrix(.446 -.895 .895 .446 9.102 44.992)"/><path d="m75.022 111.141h32v16h-32z" transform="matrix(.895 -.446 .446 .895 -43.604 53.145)"/><path d="m24.908 136.133h32v16h-32z" transform="matrix(.895 -.446 .446 .895 -60.025 33.407)"/><path d="m224 248h232v-128h-80l-32-24h-120z"/></g><path d="m456 136h32v96h-32z" fill="#fdc8a2"/><path d="m416 152h16v96h-16z" fill="#3ba5d3"/><path d="m328 488h-144a24 24 0 0 1 -24-24v-70.737a310.36 310.36 0 0 1 32.764-138.792 310.325 310.325 0 0 0 23.5-63.522l7.736-30.949h64l7.737 30.949a310.325 310.325 0 0 0 23.5 63.522 310.36 310.36 0 0 1 32.763 138.792v70.737a24 24 0 0 1 -24 24z" fill="#ffb431"/><path d="m192 168h-24v-96l32 24z" fill="#df6257"/><path d="m288 40h-120v40l56 40v40h64v-64l40-16a40 40 0 0 0 -40-40z" fill="#d65246"/><path d="m136 40h32v40h-32z" fill="#df6257"/><rect fill="#4db6e4" height="32" rx="16" width="72" x="128" y="96"/><rect fill="#4db6e4" height="32" rx="16" width="72" x="176" y="168"/><rect fill="#4db6e4" height="32" rx="16" width="72" x="176" y="200"/><rect fill="#4db6e4" height="32" rx="16" width="72" x="176" y="232"/><path d="m233 96a17 17 0 0 0 -2.108 33.861l49.108 6.139 1.144 2.861a59.082 59.082 0 0 0 54.856 37.139v-80z" fill="#4db6e4"/><path d="m248 328h64a0 0 0 0 1 0 0v32a48 48 0 0 1 -48 48h-64a0 0 0 0 1 0 0v-32a48 48 0 0 1 48-48z" fill="#ffc261"/><path d="m456 136h16v96h-16z" fill="#fdbf92"/></g></svg>